<?xml version="1.0" encoding="utf-8"?>
<!-- Generator: Adobe Illustrator 19.0.0, SVG Export Plug-In . SVG Version: 6.00 Build 0)  -->
<svg version="1.1" id="Layer_1" xmlns="http://www.w3.org/2000/svg" xmlns:xlink="http://www.w3.org/1999/xlink" x="0px" y="0px"
	 viewBox="0 0 125.7 165.3" style="enable-background:new 0 0 125.7 165.3;" xml:space="preserve">
<style type="text/css">
	.st0{fill:none;stroke:#354A52;stroke-width:3.1886;stroke-linecap:round;stroke-linejoin:round;stroke-miterlimit:10;}
	.st1{stroke:#354A52;stroke-width:3.1886;stroke-linecap:round;stroke-linejoin:round;stroke-miterlimit:10;}
	.st2{fill:#354A52;}
	.st3{fill:none;stroke:#354A52;stroke-width:4.5448;stroke-miterlimit:10;}
	.st4{fill:none;stroke:#354A52;stroke-width:6.5608;stroke-linecap:round;stroke-linejoin:round;stroke-miterlimit:10;}
	.st5{fill:#354A52;stroke:#354A52;stroke-width:0.2583;stroke-miterlimit:10;}
	.st6{fill:none;stroke:#354A52;stroke-width:5.7834;stroke-linecap:round;stroke-linejoin:round;stroke-miterlimit:10;}
	.st7{fill:none;stroke:#354A52;stroke-width:5.4269;stroke-linecap:round;stroke-linejoin:round;stroke-miterlimit:10;}
</style>
<path id="XMLID_924_" class="st0" d="M93.5,4.5c-0.1-0.4-0.2-0.6-0.3-0.9c-0.1-0.2-0.1-0.3-0.1-0.5c7-3.7,17.4,0.6,20.2,10.4
	c-0.4,0.1-0.8,0.3-1.3,0.4c-1.3-4-3.5-7.1-7.2-9C101.1,3,97.3,2.8,93.5,4.5z"/>
<path id="XMLID_923_" class="st1" d="M91,12.9c-0.2-0.5-0.3-0.8-0.4-1.2c4.8-2.7,13-0.1,15.3,7.8c-0.4,0.1-0.7,0.3-1.2,0.5
	c-1-2.9-2.5-5.3-5.2-6.8C96.7,11.7,93.9,11.7,91,12.9z"/>
<path id="XMLID_922_" class="st1" d="M88,21.9c-0.1-0.2-0.2-0.3-0.2-0.4c-0.1-0.2-0.2-0.5-0.2-0.8c2.9-1.8,9-0.5,10.8,5.5
	c-0.4,0.1-0.8,0.3-1.3,0.5c-0.7-1.9-1.6-3.6-3.4-4.6C91.9,21.1,90,21.2,88,21.9z"/>
<g id="XMLID_921_">
	<path id="XMLID_107_" class="st2" d="M67.6,125.6c-10.5,0-21-2.5-30.5-7.3C14.8,106.9,2.5,85.2,5,64.1
		c5.7,11.4,23.6,24.6,46.6,34.4c17,7.2,34.3,11.3,47.5,11.3c4.2,0,7.8-0.4,10.9-1.2C99.6,119.3,84.2,125.6,67.6,125.6z"/>
	<path id="XMLID_104_" class="st2" d="M7,71.2c8.3,10.2,24.2,21.1,43.7,29.3c17.3,7.3,34.9,11.5,48.3,11.5c1.3,0,2.5,0,3.6-0.1
		c-9.5,7.2-21.9,11.3-35.1,11.3c-10.1,0-20.3-2.4-29.4-7.1C19.2,106.6,7.7,89.1,7,71.2 M6.4,50.3C-4.5,75.7,7.9,106,36.1,120.3
		c10.1,5.1,20.9,7.6,31.5,7.6c19,0,37-7.9,47.9-22.2l-1.9-0.9c-3.4,1.9-8.4,2.8-14.5,2.8c-12.4,0-29.2-3.8-46.6-11.1
		C21.7,83.4,0.9,64.1,6.2,53.3c0.4-0.8,1-1.6,1.6-2.3L6.4,50.3L6.4,50.3z"/>
</g>
<path id="XMLID_920_" class="st3" d="M71.6,57.5C43.2,45.4,16.1,42.9,8,51.1c-0.7,0.7-1.2,1.4-1.6,2.3c-5.3,10.7,15.4,30,46.2,43.1
	c25.9,11,50.6,14,61,8.3c2-1.1,3.4-2.5,4.2-4.2C123.1,89.8,102.4,70.5,71.6,57.5z"/>
<g id="XMLID_915_">
	<polyline id="XMLID_918_" class="st4" points="29.2,80.2 82.1,39.7 78,102.5 	"/>
	<line id="XMLID_917_" class="st4" x1="76.6" y1="48.6" x2="48.7" y2="96.7"/>
	<ellipse id="XMLID_916_" class="st5" cx="84.3" cy="36" rx="7.7" ry="7.3"/>
</g>
<polyline id="XMLID_914_" class="st6" points="20.6,159.6 47.8,116.4 77.5,159.4 "/>
<line id="XMLID_913_" class="st7" x1="48.7" y1="123.4" x2="48.7" y2="159.9"/>
</svg>
