<?xml version="1.0" encoding="utf-8"?>
<!-- Generator: Adobe Illustrator 19.0.0, SVG Export Plug-In . SVG Version: 6.00 Build 0)  -->
<svg version="1.1" id="Layer_1" xmlns="http://www.w3.org/2000/svg" xmlns:xlink="http://www.w3.org/1999/xlink" x="0px" y="0px"
	 viewBox="0 0 158.7 165.3" style="enable-background:new 0 0 158.7 165.3;" xml:space="preserve">
<style type="text/css">
	.st0{fill:#354A52;}
	.st1{fill:none;stroke:#354A52;stroke-width:5.0407;stroke-miterlimit:10;}
	.st2{fill:none;stroke:#354A52;stroke-width:5.0407;stroke-linecap:round;stroke-linejoin:round;stroke-miterlimit:10;}
	.st3{fill:none;stroke:#354A52;stroke-width:5.4788;stroke-linecap:round;stroke-linejoin:round;stroke-miterlimit:10;}
</style>
<g id="XMLID_934_">
	<g id="XMLID_940_">
		<path id="XMLID_21_" class="st0" d="M133.7,7.7c6.1,16.1,12.1,31.9,18.3,48.1c-24.3,6.9-48,13.6-72.1,20.5
			C75.6,65,71.4,53.8,67,42.2C89.2,30.7,111.3,19.3,133.7,7.7 M133.7,2.6c-0.8,0-1.6,0.2-2.3,0.6L93.9,22.6L64.6,37.7
			c-2.3,1.2-3.3,3.9-2.4,6.3l12.9,34c0.8,2,2.7,3.3,4.7,3.3c0.5,0,0.9-0.1,1.4-0.2l3.4-1l68.7-19.5c1.4-0.4,2.5-1.3,3.1-2.6
			c0.6-1.3,0.7-2.7,0.2-4.1l-7.9-20.8L138.4,5.9c-0.5-1.3-1.6-2.4-2.9-2.9C135,2.7,134.3,2.6,133.7,2.6L133.7,2.6z"/>
	</g>
	<g id="XMLID_939_">
		<path id="XMLID_17_" class="st0" d="M62.9,51.7c2.6,7,5.1,13.6,7.7,20.4C58.4,76,46.6,79.9,34.2,84c-2-5.3-4-10.5-6.2-16.1
			C39.9,62.4,51.3,57.1,62.9,51.7 M62.9,46.6c-0.7,0-1.5,0.2-2.1,0.5l-6.9,3.2l-27.9,13c-2.4,1.1-3.5,3.9-2.6,6.4l3,7.9l3.1,8.2
			c0.8,2,2.7,3.2,4.7,3.2c0.5,0,1.1-0.1,1.6-0.3l31.5-10.3l4.9-1.6c1.3-0.4,2.4-1.4,3-2.6c0.6-1.2,0.7-2.7,0.2-4L70,56.2l-2.4-6.3
			c-0.5-1.3-1.5-2.4-2.8-2.9C64.2,46.7,63.6,46.6,62.9,46.6L62.9,46.6z"/>
	</g>
	<g id="XMLID_938_">
		<path id="XMLID_13_" class="st0" d="M23.2,75.3c0.9,2.3,1.6,4.3,2.5,6.6c-6.1,1.7-11.5,3.3-16.9,4.8c0,0-0.1,0-0.1,0
			c-0.8,0-2.1-2.7-1.4-3.1C12.4,80.8,17.7,78.1,23.2,75.3 M23.2,70.3c-0.8,0-1.6,0.2-2.3,0.6c-1.3,0.7-2.6,1.3-3.9,2
			C12.8,75,8.8,77,4.8,79.2c-1.7,0.9-3.4,3.2-2.6,6.6c0.8,3,3,5.9,6.4,5.9c0.5,0,0.9-0.1,1.4-0.2c4.1-1.1,8.3-2.3,12.6-3.5
			c1.4-0.4,2.9-0.8,4.4-1.3c1.4-0.4,2.5-1.3,3.1-2.6c0.6-1.3,0.7-2.7,0.2-4l-1.5-3.9l-1-2.7c-0.5-1.3-1.6-2.4-2.9-2.9
			C24.4,70.4,23.8,70.3,23.2,70.3L23.2,70.3z"/>
	</g>
	<ellipse id="XMLID_937_" class="st1" cx="68.7" cy="98.1" rx="14.9" ry="14.6"/>
	<polyline id="XMLID_936_" class="st2" points="41.8,160.2 53.9,116.7 83.6,116.7 96.3,160.2 	"/>
	<line id="XMLID_935_" class="st3" x1="68.7" y1="117.5" x2="70" y2="161"/>
</g>
</svg>
