<?xml version="1.0" encoding="utf-8"?>
<!-- Generator: Adobe Illustrator 19.0.0, SVG Export Plug-In . SVG Version: 6.00 Build 0)  -->
<svg version="1.1" id="Layer_1" xmlns="http://www.w3.org/2000/svg" xmlns:xlink="http://www.w3.org/1999/xlink" x="0px" y="0px"
	 viewBox="0 0 308.4 358.5" style="enable-background:new 0 0 308.4 358.5;" xml:space="preserve">
<style type="text/css">
	.st0{fill:none;stroke:#F8FAF3;stroke-width:18;stroke-linecap:round;stroke-linejoin:round;stroke-miterlimit:10;}
	.st1{fill:none;stroke:#F8FAF3;stroke-width:18;stroke-linecap:round;stroke-miterlimit:10;}
	.st2{fill:#F8FAF3;}
</style>
<g id="XMLID_3_">
	<path id="XMLID_794_" class="st0" d="M247.9,179.5c-57.7,67.9-132,64.4-186.1-0.2c22-24.9,45.7-47.5,80.3-55.2
		c11.8-2.6,23.5-1.7,34.8,2.2C206.4,136.6,228.4,156.5,247.9,179.5z"/>
	<line id="XMLID_792_" class="st1" x1="152.9" y1="21.9" x2="152.9" y2="95.9"/>
	<line id="XMLID_791_" class="st1" x1="215.4" y1="116.8" x2="246.8" y2="87.3"/>
	<line id="XMLID_790_" class="st1" x1="85.2" y1="117.3" x2="53.8" y2="87.8"/>
	<line id="XMLID_789_" class="st1" x1="152.9" y1="336.6" x2="152.9" y2="262.6"/>
	<line id="XMLID_679_" class="st1" x1="215.4" y1="241.7" x2="246.8" y2="270.8"/>
	<line id="XMLID_678_" class="st1" x1="85.2" y1="241.2" x2="53.8" y2="270.3"/>
	<g id="XMLID_2_">
		<path id="XMLID_6_" class="st2" d="M152.9,146c-17.7,0-32.1,13.3-32.1,29.8c0,16.5,14.4,29.8,32.1,29.8
			c17.7,0,32.1-13.3,32.1-29.8C185,159.4,170.6,146,152.9,146z M148.5,177.3l-1.2,8.4l-5.9-6.1l-8.3,1.4l3.9-7.5l-3.9-7.5l8.3,1.4
			l5.9-6.1l1.2,8.4l7.6,3.7L148.5,177.3z"/>
	</g>
</g>
</svg>
