<?xml version="1.0" encoding="utf-8"?>
<!-- Generator: Adobe Illustrator 19.0.0, SVG Export Plug-In . SVG Version: 6.00 Build 0)  -->
<svg version="1.1" id="Layer_1" xmlns="http://www.w3.org/2000/svg" xmlns:xlink="http://www.w3.org/1999/xlink" x="0px" y="0px"
	 viewBox="0 0 792 225" style="enable-background:new 0 0 792 225;" xml:space="preserve">
<style type="text/css">
	.st0{fill:#4298D1;}
	.st1{fill:none;}
	.st2{fill:#FFFFFF;}
	.st3{font-family:'AlternateGotNo3D';}
	.st4{font-size:34.9752px;}
	.st5{fill:#31B89A;}
	.st6{fill:#1E3138;}
</style>
<g id="XMLID_10_">
	<g id="XMLID_2_">
		<path id="XMLID_5_" class="st0" d="M305.6,126c0-14.8,1.9-29.9,8.2-43c8.6-17.6,24.2-30.3,41.7-38.5c34.1-15.9,74.7-2.6,95.6,30.7
			c3.4,5.3,7.2,11.1,12.2,15c5.5,4.3,12.6,6.8,18.4,10.9c10.1,7.1,17.6,16.6,18.8,29.2c0.6,6.3,1.4,14-1.4,19.9
			c-3.5,7.3-13.9,8.8-16.9,0.3c-4.6-13.1-13.7-21.1-27.9-22c-12.6-0.8-24.3,3.6-28.7,15.3c-3.3,9.1-10.7,12.6-19.9,13
			c-8.1,0.3-19.5,2.1-22.8-7.1c-4.9-13.9-15.8-21.5-29.8-21.5c-13.7,0.1-24.5,7.9-29.9,21.7c-2.4,6.1-9.1,8.3-13.8,3.1
			C303.8,147.2,305.6,133.6,305.6,126z M438.7,88.7c0.3-1.7,0.8-2.6,0.6-3.2c-4.9-18.5-21.7-32.7-42.5-33.8
			c-2.2-0.1-6.4,3.2-6.5,5.1c-0.7,8.8-0.6,17.8-0.1,26.7c0.1,1.8,3.1,5,4.9,5C409.6,88.9,424.2,88.7,438.7,88.7z M330.9,88.7
			c15,0,29.8,0.1,44.7-0.2c1.4,0,3.8-2.6,3.8-4c0.4-9.2,0.6-18.4,0-27.6c-0.1-1.9-4-5.1-6.3-5.2C354.5,50.6,333,69.1,330.9,88.7z"/>
		<path id="XMLID_6_" class="st0" d="M353.1,131.4c14.4-0.1,25.8,11.1,26.2,25.5c0.3,14.3-11,26.1-25.3,26.3
			c-14.9,0.3-26.8-11.3-26.8-25.9C327.2,143.3,339,131.5,353.1,131.4z"/>
		<path id="XMLID_7_" class="st0" d="M451.8,183.2c-14.4-0.1-25.8-11.5-25.8-25.9c0-14.1,11.8-25.9,25.9-25.9
			c14.5-0.1,26.7,12.2,26.4,26.5C478,172.1,466.2,183.3,451.8,183.2z"/>
	</g>
	<rect id="XMLID_27_" x="302.1" y="100.2" class="st1" width="175.2" height="29.2"/>
	<text id="XMLID_8_" transform="matrix(0.9792 0 0 1 327.8289 123.4979)" class="st2 st3 st4">IRON RIDES</text>
</g>
<g id="XMLID_1_">
	<g id="XMLID_3_">
		<path id="XMLID_4_" class="st0" d="M44.9,80.9c6.5,0,11.3,4.2,13.2,11.5c0.5,2.1,0.7,4.2,2.1,6.1c1.5,2.1-0.1,7.1-2.7,9.1
			c-1.4,1.1-2.3,2.4-3,4c-1,2.3-2.3,4.5-4,6.5c-3.8,4.6-8.8,4.8-12.9,0.5c-1.4-1.5-2.6-3.1-3.5-4.9c-1.2-2.3-2.2-4.7-4.6-6.5
			c-2.9-2.2-3.2-7-1.3-10.2c0.5-0.9,0.7-1.9,0.9-2.9C30.5,84.8,36,81.9,44.9,80.9z"/>
		<path id="XMLID_11_" class="st0" d="M43.9,135c-9.1,0-18.2-0.1-27.4,0c-2.3,0-3.3-0.8-3.6-3.1c-0.7-4.6,1.2-8.1,5.6-9.5
			c4.2-1.3,8.5-2.3,12.7-3.5c1.2-0.3,2.1-0.2,3,0.7c5.7,5.7,14,5.7,19.4-0.1c0.8-0.8,1.7-0.9,2.8-0.7c4.4,1.2,8.8,2.3,13.2,3.6
			c5.6,1.6,6,6.3,5.1,10.8c-0.4,1.8-1.9,1.7-3.2,1.7C62.3,135,53.1,135,43.9,135z"/>
	</g>
	<g id="XMLID_41_">
		<path id="XMLID_43_" class="st0" d="M99.2,42.5c6.5,0,11.3,4.2,13.2,11.5c0.5,2.1,0.7,4.2,2.1,6.1c1.5,2.1-0.1,7.1-2.7,9.1
			c-1.4,1.1-2.3,2.4-3,4c-1,2.3-2.3,4.5-4,6.5c-3.8,4.6-8.8,4.8-12.9,0.5c-1.4-1.5-2.6-3.1-3.5-4.9c-1.2-2.3-2.2-4.7-4.6-6.5
			c-2.9-2.2-3.2-7-1.3-10.2c0.5-0.9,0.7-1.9,0.9-2.9C84.8,46.4,90.3,43.5,99.2,42.5z"/>
		<path id="XMLID_42_" class="st0" d="M98.2,96.6c-9.1,0-18.2-0.1-27.4,0c-2.3,0-3.3-0.8-3.6-3.1c-0.7-4.6,1.2-8.1,5.6-9.5
			c4.2-1.3,8.5-2.3,12.7-3.5c1.2-0.3,2.1-0.2,3,0.7c5.7,5.7,14,5.7,19.4-0.1c0.8-0.8,1.7-0.9,2.8-0.7c4.4,1.2,8.8,2.3,13.2,3.6
			c5.6,1.6,6,6.3,5.1,10.8c-0.4,1.8-1.9,1.7-3.2,1.7C116.6,96.6,107.4,96.6,98.2,96.6z"/>
	</g>
	<g id="XMLID_44_">
		<path id="XMLID_46_" class="st0" d="M152.6,82.7c6.5,0,11.3,4.2,13.2,11.5c0.5,2.1,0.7,4.2,2.1,6.1c1.5,2.1-0.1,7.1-2.7,9.1
			c-1.4,1.1-2.3,2.4-3,4c-1,2.3-2.3,4.5-4,6.5c-3.8,4.6-8.8,4.8-12.9,0.5c-1.4-1.5-2.6-3.1-3.5-4.9c-1.2-2.3-2.2-4.7-4.6-6.5
			c-2.9-2.2-3.2-7-1.3-10.2c0.5-0.9,0.7-1.9,0.9-2.9C138.1,86.5,143.6,83.6,152.6,82.7z"/>
		<path id="XMLID_45_" class="st0" d="M151.5,136.7c-9.1,0-18.2-0.1-27.4,0c-2.3,0-3.3-0.8-3.6-3.1c-0.7-4.6,1.2-8.1,5.6-9.5
			c4.2-1.3,8.5-2.3,12.7-3.5c1.2-0.3,2.1-0.2,3,0.7c5.7,5.7,14,5.7,19.4-0.1c0.8-0.8,1.7-0.9,2.8-0.7c4.4,1.2,8.8,2.3,13.2,3.6
			c5.6,1.6,6,6.3,5.1,10.8c-0.4,1.8-1.9,1.7-3.2,1.7C169.9,136.7,160.7,136.7,151.5,136.7z"/>
	</g>
	<g id="XMLID_47_">
		<path id="XMLID_49_" class="st0" d="M99.2,120.6c6.5,0,11.3,4.2,13.2,11.5c0.5,2.1,0.7,4.2,2.1,6.1c1.5,2.1-0.1,7.1-2.7,9.1
			c-1.4,1.1-2.3,2.4-3,4c-1,2.3-2.3,4.5-4,6.5c-3.8,4.6-8.8,4.8-12.9,0.5c-1.4-1.5-2.6-3.1-3.5-4.9c-1.2-2.3-2.2-4.7-4.6-6.5
			c-2.9-2.2-3.2-7-1.3-10.2c0.5-0.9,0.7-1.9,0.9-2.9C84.8,124.4,90.3,121.5,99.2,120.6z"/>
		<path id="XMLID_48_" class="st0" d="M98.2,174.7c-9.1,0-18.2-0.1-27.4,0c-2.3,0-3.3-0.8-3.6-3.1c-0.7-4.6,1.2-8.1,5.6-9.5
			c4.2-1.3,8.5-2.3,12.7-3.5c1.2-0.3,2.1-0.2,3,0.7c5.7,5.7,14,5.7,19.4-0.1c0.8-0.8,1.7-0.9,2.8-0.7c4.4,1.2,8.8,2.3,13.2,3.6
			c5.6,1.6,6,6.3,5.1,10.8c-0.4,1.8-1.9,1.7-3.2,1.7C116.6,174.7,107.4,174.7,98.2,174.7z"/>
	</g>
</g>
<path id="XMLID_50_" class="st5" d="M273.7,107.6c-13.5,0-71.6,0-71.6,0v6.1c0,0,58.1,0,71.6,0c-6.5,5.2-6.5,11.8-6.5,11.8
	s9.4-10.7,16.4-14c1.2-0.6,1.3-1.3,0-1.9c-7-3.4-16.5-14.1-16.5-14.1S267,102.4,273.7,107.6z"/>
<path id="XMLID_52_" class="st5" d="M598,107.6c-13.5,0-71.6,0-71.6,0v6.1c0,0,58.1,0,71.6,0c-6.5,5.2-6.5,11.8-6.5,11.8
	s9.4-10.7,16.4-14c1.2-0.6,1.3-1.3,0-1.9c-7-3.4-16.5-14.1-16.5-14.1S591.3,102.4,598,107.6z"/>
<g id="XMLID_15_">
	<path id="XMLID_128_" class="st6" d="M629.6,118.4c0-9.2,0-18.4,0-27.6c0-3,1.3-5.3,4-6.8c22.2-12.5,44.3-25,66.4-37.6
		c2.9-1.7,5.6-1.7,8.6,0c22.1,12.5,44.2,25,66.4,37.5c2.8,1.6,4.1,4,4.1,7.1c0,18.2,0,36.4,0,54.7c0,3.1-1.3,4.9-4.2,6
		c-22,8-43.9,16-65.9,24c-3.1,1.1-6.2,1.1-9.2,0c-22.1-8-44.2-16.1-66.3-24.2c-2.4-0.9-3.8-2.9-3.8-5.4
		C629.6,137,629.6,127.7,629.6,118.4z M711.2,138.1c1,0,1.8,0,2.7,0c0.8-0.1,1.2,0.2,1.6,0.9c1.3,2.4,2.7,4.7,4.1,7
		c0.2,0.4,0.8,0.8,1.1,0.8c8,0,16.1,0,24.1-0.1c3.6-0.1,5.6-1.9,6.4-5.3c0.8-3.9,0.8-7.8,0.1-11.7c-0.8-4.1-2.8-5.8-7-5.9
		c-5.5-0.1-11,0-16.5-0.1c-0.2,0-0.4,0-0.6,0.1c0,1.7,0,3.4,0,5.2c0.8,0,1.5,0,2.2,0c0,4.2,0,8.4,0,12.6c-1.4,0-2.7,0-3.9,0
		c-0.2,0-0.6-0.2-0.7-0.4c-1.1-1.7-2.1-3.5-3.1-5.3c0.2-0.1,0.4-0.2,0.6-0.2c1.8-0.4,2.8-1.6,2.9-3.3c0.1-1.5,0.2-3.1,0-4.6
		c-0.3-2.5-1.7-3.8-4.3-3.9c-6.1-0.1-12.3,0-18.4,0c-0.1,0-0.3,0.1-0.4,0.1c0,1.7,0,3.3,0,5c0.8,0,1.6,0.1,2.3,0.1
		c0,4.2,0,8.4,0,12.5c-1.1,0-2.1,0-3.2,0c-0.1-0.3-0.2-0.6-0.3-0.8c-1.8-5.4-3.7-10.8-5.5-16.2c-0.2-0.7-0.5-1-1.3-1
		c-2.8,0.1-5.6,0.1-8.4,0c-0.8,0-1.1,0.3-1.3,1c-0.4,1.2-0.8,2.5-1.2,3.7c-1.5,4.4-3,8.9-4.5,13.4c-0.9,0-1.7,0-2.5,0
		c0,1.8,0,3.5,0,5.3c2.9,0,5.7,0,8.5,0c3,0,3,0,3-2.9c0-2.1,0-2.1-2.2-2.5c0.4-0.6,0.7-1.5,1.1-1.5c2.3-0.1,4.6-0.1,6.9-0.1
		c0.2,0.6,0.3,1.1,0.5,1.7c-0.7,0.1-1.3,0.1-1.9,0.2c0,1.7,0,3.4,0,5.1c7.3,0,14.6,0,21.9,0c0-1.8,0-3.5,0-5.3c-0.8,0-1.5,0-2.3,0
		C711.2,140.3,711.2,139.3,711.2,138.1z M750.5,102.1c0.8,0,1.5,0,2.4,0c0-1.4,0-2.7,0-4.1c0-0.9-0.2-1.2-1.2-1.2
		c-2.8,0.1-5.7,0-8.6,0c-0.4,0-0.7,0-1.1,0.1c0,1.8,0,3.4,0,5.1c0.7,0.1,1.4,0.1,2.1,0.1c0,2,0,3.9,0,6.1c-2.4-3.6-4.6-7.1-6.8-10.5
		c-0.4-0.6-0.8-0.9-1.6-0.9c-2,0.1-4,0-6,0c-1.1,0-2.3,0-3.4,0c0,1.8,0,3.5,0,5.3c0.8,0,1.6,0,2.3,0c0,4.3,0,8.4,0,12.7
		c-0.8,0-1.6,0-2.3,0c0,1.8,0,3.4,0,5.1c3.7,0,7.3,0,10.9,0c0-1.7,0-3.4,0-5.1c-0.8,0-1.5,0-2.3,0c0-2.4,0-4.8,0-7.4
		c0.4,0.5,0.6,0.8,0.8,1.2c1.8,2.8,3.7,5.6,5.2,8.5c1.2,2.4,2.7,3.4,5.4,3c1.4-0.2,2.8,0,4.2,0C750.5,113.9,750.5,108.1,750.5,102.1
		z M722.8,85.7c-0.1-0.1-0.1-0.1-0.2-0.2c-0.5,0.3-0.9,0.6-1.4,0.9c-2.1,1.1-4.2,2.2-6.3,3.1c-0.4,0.2-1.3,0.1-1.5-0.2
		c-0.2-0.4,0-1.1,0.1-1.6c0-0.2,0.2-0.3,0.4-0.5c1.6,1.4,3,0.7,4.3-0.3c1-0.8,2-1.8,2.8-2.8c1-1.3,0.9-2.4,0.1-3.3
		c-1.6-1.8-2.3-2-4-1c-2.2,1.3-4.1,3-5.6,5.2c-1.2,1.8-2.9,3-4.7,4c-0.2,0.1-0.6,0.2-0.9,0.3c-0.1-0.1-0.1-0.2-0.2-0.2
		c0.3-0.5,0.5-1,0.9-1.3c1.2-1.2,2.6-2.3,3.8-3.6c0.4-0.4,1-1.3,0.9-1.5c-0.4-0.6-1.1-1.2-1.8-1.4c-0.6-0.2-1.4,0.1-2.2,0.2
		c-0.3,0.1-0.7,0.2-1,0.4c2.3-2.2,4.6-4.4,7.1-6.3c0.9-0.7,2.3-1,3.5-1.2c1.7-0.3,3.5-0.3,5.2-0.5c0.6-0.1,1.2-0.3,1.8-0.5
		c0-0.1,0-0.3,0-0.4c-1.5-1-2.5-2.6-4.6-2.6c-8.5,0.3-16.9,0.5-25.4,0.7c-2.3,0.1-4.7,0-7,0.2c-4.1,0.4-7.8,4.6-7.6,8.5
		c0.1,1.9,1.2,3.2,2.9,3.3c4.9,0.2,8.6-1.9,11.2-6.1c0.2-0.2,0.2-0.6,0.3-0.8c-0.1-0.1-0.2-0.1-0.3-0.2c-0.3,0.3-0.6,0.6-1,0.9
		c-1.9,2.1-4.1,3.8-6.9,4.4c-1.5,0.3-2.5-0.4-2.7-2c-0.3-3.1,2.5-6.4,5.7-6.5c4.2-0.1,8.2,1.1,12.3,1.8c-2.9,2.8-5.9,5.5-8.7,8.3
		c-1.6,1.6-3,3.3-4.4,5c-0.3,0.4-0.6,1.1-0.4,1.5c0.5,1.1,1.2,2.1,2,3c0.4,0.5,0.9,0.4,1.2-0.3c0.7-1.2,1.4-2.5,2.3-3.5
		c3-3.3,6.1-6.6,9.2-9.8c1.1-1.2,2.4-2.1,3.7-3.2c1.1-0.9,2.3-0.9,3.8-0.7c-0.5,0.5-0.9,0.8-1.3,1.2c-4.1,3.7-8.1,7.5-11.5,11.9
		c-1.2,1.6-1,2.4,0.6,3.5c0.6,0.4,0.8,0.2,1.3-0.3c1.8-2.1,3.8-4.2,5.7-6.2c0.3-0.3,0.7-0.5,1-0.7c-0.3,0.6-0.7,1-1,1.5
		c-0.4,0.5-0.8,1-1.1,1.6c-0.6,1.2-0.3,2.9,0.6,3.8c0.8,0.7,1.6,0.7,3-0.2c1.2-0.7,2.2-1.5,3.3-2.3c0.4,0.5,0.8,1.1,1.3,1.7
		c1.1,1.3,2.3,1.9,4,1.3c2.9-1,5-2.9,6.9-5.2C722.7,86.1,722.7,85.9,722.8,85.7z M697.3,109c2.6-0.8,3.3-1.5,3.5-3.8
		c0.1-1.7,0.1-3.4-0.2-5.1c-0.2-1.7-1.6-2.9-3.3-3.1c-0.8-0.1-1.5-0.2-2.3-0.2c-5.4,0-10.8,0-16.2,0c-0.4,0-0.8,0-1.2,0.1
		c0,1.8,0,3.5,0,5.3c0.8,0,1.5,0,2.3,0c0,4.3,0,8.4,0,12.7c-0.8,0-1.5,0-2.3,0c0,1.7,0,3.4,0,5.1c3.9,0,7.8,0,11.7,0
		c0-1.7,0-3.4,0-5.1c-0.8,0-1.6-0.1-2.4-0.1c0-1.2,0-2.2,0-3.4c1,0,1.9,0,2.8,0c0.7,0,1,0.2,1.3,0.8c1.1,2,2.4,3.8,3.4,5.9
		c0.8,1.7,1.9,2.3,3.7,2.1c1.6-0.2,3.1,0,4.7,0c0-1.8,0-3.5,0-5.2c-0.5,0-1,0-1.4,0c-0.3,0-0.8-0.1-0.9-0.4
		C699.4,112.6,698.4,110.8,697.3,109z M714.3,119.9C714.3,119.9,714.3,119.9,714.3,119.9c1.6,0,3.1,0.1,4.7,0c3.3,0,5-1.3,5.5-4.5
		c0.4-3.2,0.5-6.5,0.5-9.7c0-1.9-0.4-3.8-0.9-5.7c-0.5-1.9-1.9-3-4-3.1c-3.4-0.1-6.9-0.2-10.3-0.1c-3.7,0.1-5.3,1.5-5.7,5.2
		c-0.3,2.8-0.4,5.7-0.4,8.5c0,2,0.3,4.1,0.8,6c0.6,2.3,2,3.3,4.4,3.4C710.6,120,712.5,119.9,714.3,119.9z M671.6,141.4
		c0-0.6,0.1-1.1,0-1.6c-0.2-1.4,0.3-2.5,1.1-3.5c1.5-1.8,2.9-3.7,4.2-5.6c0.9-1.3,1.8-2.3,3.6-1.9c0,0,0.1-0.1,0.2-0.1
		c0-1.7,0-3.3,0-5c-3.9,0-7.7,0-11.4,0c0,1.7,0,3.4,0,5c0.6,0,1.1,0.1,1.8,0.1c-0.9,1.3-1.7,2.5-2.6,3.7c-0.8-1.3-1.6-2.5-2.4-3.8
		c0.7,0,1.2-0.1,1.8-0.1c0-1.7,0-3.4,0-5c-4,0-7.9,0-11.9,0c0,1.7,0,3.4,0,5.1c0.3,0,0.5,0.1,0.7,0.1c1.1-0.2,1.8,0.3,2.4,1.2
		c1.5,2.2,3,4.4,4.7,6.4c1.3,1.6,0.9,3.2,0.9,5c-0.9,0-1.7,0-2.4,0c0,1.8,0,3.5,0,5.2c3.8,0,7.6,0,11.3,0c0.2,0,0.6-0.4,0.6-0.6
		c0.1-1.5,0-3.1,0-4.7C673.2,141.4,672.5,141.4,671.6,141.4z M675.8,114.7c-2.1,0-4.1,0-6.1,0c0-4.2,0-8.4,0-12.6c2,0,4,0,6,0
		c0-1.8,0-3.5,0-5.2c-6.7,0-13.3,0-19.9,0c0,1.8,0,3.4,0,5.2c2.1,0,4.1,0,6.1,0c0,4.3,0,8.4,0,12.7c-2.1,0-4,0-6.1,0
		c0,1.8,0,3.4,0,5.1c6.7,0,13.3,0,19.9,0C675.8,118.1,675.8,116.5,675.8,114.7z"/>
	<g id="XMLID_16_">
		<path id="XMLID_123_" class="st2" d="M711.2,138.1c0,1.2,0,2.2,0,3.3c0.8,0,1.5,0,2.3,0c0,1.8,0,3.5,0,5.3c-7.3,0-14.6,0-21.9,0
			c0-1.7,0-3.4,0-5.1c0.6-0.1,1.2-0.1,1.9-0.2c-0.2-0.6-0.3-1.1-0.5-1.7c-2.3,0-4.6-0.1-6.9,0.1c-0.4,0-0.7,0.9-1.1,1.5
			c2.2,0.4,2.2,0.4,2.2,2.5c0,2.9,0,2.9-3,2.9c-2.8,0-5.6,0-8.5,0c0-1.8,0-3.5,0-5.3c0.8,0,1.6,0,2.5,0c1.5-4.5,3-9,4.5-13.4
			c0.4-1.2,0.9-2.4,1.2-3.7c0.2-0.7,0.5-1,1.3-1c2.8,0.1,5.6,0.1,8.4,0c0.8,0,1.1,0.3,1.3,1c1.8,5.4,3.6,10.8,5.5,16.2
			c0.1,0.3,0.2,0.6,0.3,0.8c1.1,0,2.1,0,3.2,0c0-4.2,0-8.3,0-12.5c-0.7,0-1.5-0.1-2.3-0.1c0-1.7,0-3.3,0-5c0.1,0,0.3-0.1,0.4-0.1
			c6.1,0,12.3,0,18.4,0c2.6,0,4,1.3,4.3,3.9c0.2,1.5,0.1,3.1,0,4.6c-0.2,1.7-1.1,2.9-2.9,3.3c-0.2,0-0.3,0.1-0.6,0.2
			c1.1,1.8,2.1,3.6,3.1,5.3c0.1,0.2,0.5,0.4,0.7,0.4c1.3,0,2.6,0,3.9,0c0-4.2,0-8.4,0-12.6c-0.7,0-1.4,0-2.2,0c0-1.8,0-3.4,0-5.2
			c0.2,0,0.4-0.1,0.6-0.1c5.5,0,11,0,16.5,0.1c4.2,0.1,6.2,1.7,7,5.9c0.7,3.9,0.7,7.8-0.1,11.7c-0.7,3.5-2.8,5.3-6.4,5.3
			c-8,0.1-16.1,0.1-24.1,0.1c-0.4,0-0.9-0.4-1.1-0.8c-1.4-2.3-2.8-4.6-4.1-7c-0.4-0.7-0.8-0.9-1.6-0.9
			C713,138.1,712.1,138.1,711.2,138.1z M736.4,141.4c2.3,0,4.4,0,6.5,0c0.7,0,1.4-0.3,1.4-1.2c0-3.4,0-6.8,0-10.2c0-0.4-0.6-1-0.9-1
			c-2.3-0.1-4.7,0-7,0C736.4,133.1,736.4,137.2,736.4,141.4z M711.1,133.2c1.9,0,3.7,0,5.4,0c0.7,0,1.3-0.2,1.3-1
			c0-1.1,0.5-2.3-0.5-3.2c0,0-0.1-0.1-0.2-0.1c-2,0-4,0-6,0C711.1,130.3,711.1,131.7,711.1,133.2z M687,134.7c1.6,0,3.1,0,4.7,0
			c-0.5-1.6-1-3.1-1.5-4.6c-0.1-0.2-0.5-0.4-0.8-0.4c-0.3,0-0.8,0.2-0.9,0.4C688,131.5,687.5,133.1,687,134.7z"/>
		<path id="XMLID_122_" class="st2" d="M750.5,102.1c0,6,0,11.9,0,17.9c-1.5,0-2.9-0.2-4.2,0c-2.6,0.4-4.2-0.6-5.4-3
			c-1.5-3-3.4-5.7-5.2-8.5c-0.2-0.3-0.4-0.6-0.8-1.2c0,2.6,0,5,0,7.4c0.8,0,1.5,0,2.3,0c0,1.8,0,3.4,0,5.1c-3.6,0-7.2,0-10.9,0
			c0-1.6,0-3.3,0-5.1c0.7,0,1.5,0,2.3,0c0-4.3,0-8.4,0-12.7c-0.7,0-1.5,0-2.3,0c0-1.8,0-3.5,0-5.3c1.2,0,2.3,0,3.4,0c2,0,4,0,6,0
			c0.8,0,1.2,0.3,1.6,0.9c2.2,3.5,4.5,6.9,6.8,10.5c0-2.1,0-4.1,0-6.1c-0.6,0-1.3-0.1-2.1-0.1c0-1.7,0-3.4,0-5.1
			c0.4,0,0.7-0.1,1.1-0.1c2.9,0,5.7,0,8.6,0c1,0,1.2,0.3,1.2,1.2c-0.1,1.3,0,2.6,0,4.1C752,102.1,751.3,102.1,750.5,102.1z"/>
		<path id="XMLID_119_" class="st2" d="M722.8,85.7c-0.1,0.2-0.1,0.4-0.2,0.6c-1.9,2.3-4.1,4.2-6.9,5.2c-1.7,0.6-2.9-0.1-4-1.3
			c-0.4-0.5-0.8-1.1-1.3-1.7c-1.1,0.8-2.2,1.6-3.3,2.3c-1.5,0.9-2.3,0.9-3,0.2c-0.9-0.9-1.3-2.6-0.6-3.8c0.3-0.6,0.7-1.1,1.1-1.6
			c0.4-0.5,0.8-0.9,1-1.5c-0.3,0.2-0.7,0.4-1,0.7c-1.9,2-3.8,4.1-5.7,6.2c-0.4,0.5-0.7,0.6-1.3,0.3c-1.6-1.1-1.8-1.9-0.6-3.5
			c3.4-4.4,7.4-8.2,11.5-11.9c0.4-0.3,0.8-0.7,1.3-1.2c-1.5-0.2-2.7-0.2-3.8,0.7c-1.2,1.1-2.5,2-3.7,3.2c-3.1,3.2-6.2,6.5-9.2,9.8
			c-0.9,1-1.6,2.3-2.3,3.5c-0.4,0.7-0.8,0.8-1.2,0.3c-0.7-0.9-1.4-2-2-3c-0.2-0.4,0.1-1.1,0.4-1.5c1.4-1.7,2.8-3.4,4.4-5
			c2.8-2.8,5.7-5.5,8.7-8.3c-4.1-0.7-8.1-2-12.3-1.8c-3.1,0.1-6,3.4-5.7,6.5c0.1,1.6,1.1,2.3,2.7,2c2.8-0.6,5-2.3,6.9-4.4
			c0.3-0.3,0.6-0.6,1-0.9c0.1,0.1,0.2,0.1,0.3,0.2c-0.1,0.3-0.1,0.6-0.3,0.8c-2.6,4.2-6.3,6.2-11.2,6.1c-1.7-0.1-2.9-1.4-2.9-3.3
			c-0.2-3.9,3.5-8.1,7.6-8.5c2.3-0.2,4.7-0.1,7-0.2c8.5-0.2,16.9-0.4,25.4-0.7c2.2-0.1,3.2,1.6,4.6,2.6c0,0.1,0,0.3,0,0.4
			c-0.6,0.2-1.2,0.4-1.8,0.5c-1.7,0.2-3.5,0.2-5.2,0.5c-1.2,0.2-2.6,0.5-3.5,1.2c-2.5,1.9-4.8,4.1-7.1,6.3c0.3-0.1,0.6-0.3,1-0.4
			c0.7-0.1,1.5-0.4,2.2-0.2c0.7,0.2,1.4,0.8,1.8,1.4c0.2,0.3-0.5,1.1-0.9,1.5c-1.2,1.2-2.6,2.4-3.8,3.6c-0.4,0.4-0.6,0.9-0.9,1.3
			c0.1,0.1,0.1,0.2,0.2,0.2c0.3-0.1,0.6-0.1,0.9-0.3c1.8-1,3.5-2.2,4.7-4c1.4-2.1,3.3-3.9,5.6-5.2c1.7-1,2.4-0.8,4,1
			c0.9,0.9,0.9,2-0.1,3.3c-0.8,1-1.8,2-2.8,2.8c-1.3,1-2.8,1.7-4.3,0.3c-0.2,0.2-0.3,0.4-0.4,0.5c-0.1,0.6-0.3,1.2-0.1,1.6
			c0.1,0.3,1.1,0.3,1.5,0.2c2.1-1,4.2-2.1,6.3-3.1c0.5-0.2,0.9-0.6,1.4-0.9C722.6,85.6,722.7,85.6,722.8,85.7z M714.6,86.1
			c1.6,0.3,4.5-2.2,5-4.2C717.7,82.9,716,84.3,714.6,86.1z"/>
		<path id="XMLID_116_" class="st2" d="M697.3,109c1.1,1.9,2.1,3.6,3.2,5.4c0.1,0.2,0.6,0.3,0.9,0.4c0.4,0.1,0.9,0,1.4,0
			c0,1.7,0,3.4,0,5.2c-1.6,0-3.2-0.1-4.7,0c-1.8,0.2-2.9-0.4-3.7-2.1c-1-2-2.3-3.9-3.4-5.9c-0.3-0.5-0.6-0.8-1.3-0.8
			c-0.9,0.1-1.8,0-2.8,0c0,1.2,0,2.3,0,3.4c0.8,0,1.5,0.1,2.4,0.1c0,1.7,0,3.3,0,5.1c-3.9,0-7.7,0-11.7,0c0-1.7,0-3.3,0-5.1
			c0.8,0,1.5,0,2.3,0c0-4.2,0-8.4,0-12.7c-0.7,0-1.4,0-2.3,0c0-1.8,0-3.5,0-5.3c0.4,0,0.8,0,1.2-0.1c5.4,0,10.8,0,16.2,0
			c0.8,0,1.6,0.1,2.3,0.2c1.7,0.3,3.1,1.4,3.3,3.1c0.2,1.7,0.3,3.4,0.2,5.1C700.6,107.5,699.8,108.2,697.3,109z M686.9,102.1
			c0,1.5,0,2.9,0,4.3c1.9,0,3.8,0,5.7,0c0.3,0,0.9-0.3,0.9-0.5c0.1-1.1,0.1-2.3,0-3.4c0-0.2-0.6-0.4-0.9-0.4
			C690.7,102.1,688.9,102.1,686.9,102.1z"/>
		<path id="XMLID_113_" class="st2" d="M714.3,119.9c-1.8,0-3.6,0-5.4,0c-2.3-0.1-3.8-1.1-4.4-3.4c-0.5-2-0.8-4-0.8-6
			c-0.1-2.8,0.1-5.7,0.4-8.5c0.4-3.7,2-5.1,5.7-5.2c3.4-0.1,6.9,0,10.3,0.1c2.1,0,3.5,1.2,4,3.1c0.5,1.8,0.9,3.8,0.9,5.7
			c0,3.2-0.1,6.5-0.5,9.7c-0.4,3.3-2.1,4.5-5.5,4.5C717.4,120,715.8,120,714.3,119.9C714.3,119.9,714.3,119.9,714.3,119.9z
			 M717.9,108.4c-0.1,0-0.2,0-0.2,0c0-1.7,0-3.4,0-5.1c0-0.7-0.4-1.1-1.1-1c-1.5,0-3,0-4.4,0c-0.8,0-1.2,0.4-1.2,1.2
			c0,3.3,0,6.7,0,10c0,0.7,0.3,1.2,1.2,1.1c1.5,0,3,0,4.4,0c0.7,0,1.1-0.2,1.1-0.9C717.7,111.9,717.8,110.2,717.9,108.4z"/>
		<path id="XMLID_112_" class="st2" d="M671.6,141.4c0.9,0,1.7,0,2.6,0c0,1.6,0,3.2,0,4.7c0,0.2-0.4,0.6-0.6,0.6
			c-3.7,0-7.5,0-11.3,0c0-1.8,0-3.5,0-5.2c0.7,0,1.5,0,2.4,0c0-1.8,0.4-3.4-0.9-5c-1.7-2-3.2-4.2-4.7-6.4c-0.6-0.9-1.3-1.4-2.4-1.2
			c-0.2,0-0.4,0-0.7-0.1c0-1.7,0-3.3,0-5.1c4,0,7.9,0,11.9,0c0,1.6,0,3.3,0,5c-0.5,0-1,0.1-1.8,0.1c0.8,1.3,1.6,2.5,2.4,3.8
			c0.9-1.3,1.7-2.4,2.6-3.7c-0.7,0-1.2-0.1-1.8-0.1c0-1.7,0-3.3,0-5c3.8,0,7.6,0,11.4,0c0,1.7,0,3.3,0,5c0,0-0.1,0.1-0.2,0.1
			c-1.7-0.3-2.7,0.6-3.6,1.9c-1.3,1.9-2.7,3.8-4.2,5.6c-0.9,1.1-1.3,2.2-1.1,3.5C671.6,140.3,671.6,140.8,671.6,141.4z"/>
		<path id="XMLID_111_" class="st2" d="M675.8,114.7c0,1.8,0,3.4,0,5.1c-6.6,0-13.2,0-19.9,0c0-1.6,0-3.3,0-5.1c2,0,4,0,6.1,0
			c0-4.2,0-8.4,0-12.7c-2,0-4,0-6.1,0c0-1.8,0-3.5,0-5.2c6.6,0,13.2,0,19.9,0c0,1.7,0,3.4,0,5.2c-2,0-4,0-6,0c0,4.3,0,8.4,0,12.6
			C671.7,114.7,673.7,114.7,675.8,114.7z"/>
		<path id="XMLID_110_" class="st6" d="M736.4,141.4c0-4.2,0-8.3,0-12.5c2.3,0,4.6,0,7,0c0.3,0,0.9,0.7,0.9,1c0.1,3.4,0,6.8,0,10.2
			c0,0.9-0.6,1.1-1.4,1.2C740.7,141.4,738.6,141.4,736.4,141.4z"/>
	</g>
	<path id="XMLID_109_" class="st6" d="M711.1,133.2c0-1.5,0-2.8,0-4.3c2,0,4,0,6,0c0.1,0,0.2,0,0.2,0.1c1,1,0.5,2.1,0.5,3.2
		c0,0.8-0.6,1-1.3,1C714.8,133.2,713,133.2,711.1,133.2z"/>
	<path id="XMLID_108_" class="st6" d="M687,134.7c0.5-1.6,1-3.2,1.5-4.7c0.1-0.2,0.6-0.4,0.9-0.4c0.3,0,0.7,0.2,0.8,0.4
		c0.5,1.5,1,3,1.5,4.6C690.1,134.7,688.6,134.7,687,134.7z"/>
	<path id="XMLID_107_" d="M714.6,86.1c1.5-1.8,3.1-3.2,5-4.2C719.1,83.9,716.1,86.4,714.6,86.1z"/>
	<path id="XMLID_106_" class="st6" d="M686.9,102.1c2,0,3.8,0,5.6,0c0.3,0,0.9,0.3,0.9,0.4c0.1,1.1,0.1,2.3,0,3.4
		c0,0.2-0.6,0.5-0.9,0.5c-1.9,0-3.7,0-5.7,0C686.9,105,686.9,103.6,686.9,102.1z"/>
	<path id="XMLID_105_" class="st6" d="M717.7,108.5c0,1.3,0,2.7,0,4c0,0.9,0.1,2.1-1.1,2.1c-1.5,0-3,0-4.4,0c-0.8,0-1.2-0.4-1.2-1.1
		c0-3.3,0-6.7,0-10c0-0.7,0.3-1.2,1.2-1.2c1.5,0,3,0,4.4,0c0.7,0,1.1,0.3,1.1,1C717.6,105,717.7,106.8,717.7,108.5z"/>
</g>
</svg>
