<?xml version="1.0" encoding="utf-8"?>
<!-- Generator: Adobe Illustrator 19.0.0, SVG Export Plug-In . SVG Version: 6.00 Build 0)  -->
<svg version="1.1" id="Layer_1" xmlns="http://www.w3.org/2000/svg" xmlns:xlink="http://www.w3.org/1999/xlink" x="0px" y="0px"
	 viewBox="-829 115 340.5 332" style="enable-background:new -829 115 340.5 332;" xml:space="preserve">
<style type="text/css">
	.st0{fill:#0066FF;}
</style>
<g>
	<path class="st0" d="M-499.4,280.2c0,15.7-0.1,31.3,0,47c0.1,6.1-2.3,10.5-7.3,13.8c-48,31.9-95.9,63.9-143.8,95.9
		c-6,4-11.7,4.1-17.6,0.1c-47.9-32-95.9-64-143.8-95.9c-5.2-3.5-7.5-8-7.5-14.3c0.1-31.2,0.1-62.3,0-93.5c0-6.4,2.4-11.1,7.8-14.6
		c47.7-31.7,95.4-63.5,143-95.3c6.3-4.2,12.2-4.3,18.5-0.1c47.6,31.8,95.3,63.6,143,95.3c5.3,3.5,7.9,8.1,7.9,14.6
		C-499.6,248.9-499.4,264.6-499.4,280.2z M-673.2,159.6c-36.4,24.3-71.8,47.9-107.6,71.8c15.6,10.4,30.6,20.6,45.8,30.5
		c1.2,0.8,3.8,0.4,5.1-0.5c17.9-11.8,35.8-23.7,53.6-35.8c1.5-1.1,2.8-3.6,2.9-5.6c0.4-6.5,0.1-13,0.1-19.5
		C-673.2,187.2-673.2,173.9-673.2,159.6z M-537.9,231.3c-36-24-71.5-47.6-107.7-71.8c0,21.3,0,41.4,0.1,61.5c0,1.3,1,3.2,2.2,4
		c18.2,12.3,36.5,24.6,54.8,36.7c1.1,0.7,3.4,1,4.3,0.3C-568.9,252.1-553.7,241.9-537.9,231.3z M-674.2,399.9
		c0.6-0.5,0.8-0.6,0.8-0.7c0.1-20.2,0.2-40.3,0.1-60.5c0-1.4-1.5-3.3-2.8-4.1c-17.8-12-35.7-23.9-53.5-36c-2.6-1.8-4.3-1.3-6.6,0.2
		c-13.5,9.2-27.1,18.2-40.7,27.3c-1.2,0.8-2.3,1.7-3.8,2.8C-744.8,352.8-709.5,376.4-674.2,399.9z M-537.9,328.8
		c-15.8-10.6-31-20.8-46.3-30.8c-1.1-0.7-3.7,0-5.1,0.9c-17.7,11.6-35.2,23.5-52.8,35.1c-2.5,1.7-3.5,3.4-3.5,6.4
		c0.1,18.5,0.1,37,0.1,55.5c0,1.2,0.2,2.4,0.4,4.3C-609.2,376.3-573.8,352.7-537.9,328.8z M-708,280.1c16,10.7,31.3,21,46.7,31.1
		c1,0.7,3.5,0.2,4.7-0.6c5.9-3.7,11.7-7.7,17.5-11.6c9.2-6.2,18.4-12.3,27.6-18.5c-0.3-0.7-0.4-1.1-0.6-1.2
		c-15-10.1-30.1-20.2-45.2-30.2c-1-0.7-3.3-0.6-4.3,0.1C-676.9,259.2-692.1,269.4-708,280.1z M-561.3,280.1
		c11.7,7.8,22.5,15.1,34,22.7c0-15.5,0-30.1,0-45.4C-538.8,265-549.7,272.3-561.3,280.1z M-791.5,257.3c0,15.4,0,29.9,0,45.5
		c11.6-7.8,22.5-15.1,34-22.7C-769.1,272.3-780,265-791.5,257.3z"/>
</g>
</svg>
