<?xml version="1.0" encoding="utf-8"?>
<!-- Generator: Adobe Illustrator 19.0.0, SVG Export Plug-In . SVG Version: 6.00 Build 0)  -->
<svg version="1.1" id="Layer_1" xmlns="http://www.w3.org/2000/svg" xmlns:xlink="http://www.w3.org/1999/xlink" x="0px" y="0px"
	 viewBox="-834 128.3 330.7 321.7" style="enable-background:new -834 128.3 330.7 321.7;" xml:space="preserve">
<style type="text/css">
	.st0{fill:#0066FF;}
</style>
<g>
	<path class="st0" d="M-638.5,364.7c10.2-2.6,20.1-4.4,29.4-7.7c25.1-9.1,37.7-28.3,41.3-54.1c1.8-12.8,2.7-25.7-2-38
		c-2.7-7-7.3-13.4-10.7-20.1c-0.9-1.8-1.6-4.3-1.1-6.1c3.1-12.2,2.2-24.1-1.7-35.9c-0.9-2.8-2.5-3.5-5.1-3.4
		c-10.5,0.5-20.1,4.1-28.4,9.9c-8.1,5.6-15.7,6.1-25,4.1c-20.8-4.5-41.7-3.2-62.4,1.5c-2.4,0.5-5.6,0-7.7-1.3
		c-9.9-5.9-19.9-11.5-31.4-13.7c-8.4-1.6-9.2-1.2-11.5,7.1c-3,10.7-3.3,21.3-0.3,32.1c0.4,1.5,0.3,3.8-0.6,4.9
		c-15.2,18-17,39-13.2,60.9c5.7,33.2,24.9,51.5,59.5,57.6c3.6,0.6,7.1,1.2,9.7,1.6c-2.6,6.6-5,13-7.8,19.3c-0.6,1.4-2.1,2.9-3.6,3.4
		c-17.4,7-32.8,2-42.8-13.9c-5.4-8.5-12.2-14.9-22.5-16.8c-0.7-0.1-1.4-0.5-2-0.3c-2.6,0.8-5.1,1.7-7.6,2.6c1.4,1.9,2.4,4.5,4.2,5.7
		c9.7,6,15.2,15,19.7,25.1c5.8,13.3,17.1,19.1,31,20.2c7.4,0.6,14.8,0.1,22.8,0.1c0,9,0.2,18.9-0.1,28.9c-0.2,5.7-5.2,8.5-11.4,6.5
		c-4.7-1.5-9.4-3.4-14-5.4c-64.1-28.5-102.3-96.2-93.6-165.7c8.7-69.9,62.5-126.3,131.6-138.1c89.8-15.3,174.6,47.3,186,137.3
		c9.4,74.4-34,145.6-104.4,170.9c-1.3,0.5-2.5,1-3.8,1.3c-6.6,1.5-10.8-1.8-10.8-8.5c0-13-0.1-26,0.1-39
		C-628.5,385.4-630.1,373.9-638.5,364.7z"/>
	<path class="st0" d="M-736.6,388.4c0.6,1.5,1.6,3,1.7,4.5c0,0.6-1.9,2.1-2.6,1.9c-1.4-0.4-2.5-1.7-3.7-2.7c0.8-0.8,1.6-1.6,2.3-2.5
		C-738.1,389.3-737.3,388.8-736.6,388.4z"/>
	<path class="st0" d="M-720,394.4c-2.6,1.3-3.8,2.4-5,2.3c-1.2-0.1-2.2-1.4-3.4-2.2c1.1-0.8,2.1-2,3.3-2.2
		C-723.9,392.2-722.6,393.3-720,394.4z"/>
	<path class="st0" d="M-708.1,392.9c-2.5,1.2-3.8,2.3-5.2,2.3c-0.8,0.1-1.8-1.3-2.7-2c1.2-0.9,2.3-2.1,3.6-2.5
		C-711.5,390.5-710.3,391.7-708.1,392.9z"/>
	<path class="st0" d="M-749.8,382.1c1.6,2,2.7,3.2,3.5,4.7c0.1,0.2-1.8,2-1.9,2c-1.3-1-2.6-2.1-3.5-3.5
		C-752,384.9-750.9,383.7-749.8,382.1z"/>
</g>
</svg>
