<?xml version="1.0" encoding="utf-8"?>
<!-- Generator: Adobe Illustrator 19.0.0, SVG Export Plug-In . SVG Version: 6.00 Build 0)  -->
<svg version="1.1" id="Layer_1" xmlns="http://www.w3.org/2000/svg" xmlns:xlink="http://www.w3.org/1999/xlink" x="0px" y="0px"
	 viewBox="0 0 330.7 338.7" style="enable-background:new 0 0 330.7 338.7;" xml:space="preserve">
<style type="text/css">
	.st0{fill:#0066FF;}
</style>
<g>
	<path class="st0" d="M165.1,326.7C76.8,326.6,5.3,255,5.3,166.6C5.3,78.1,77.2,6.5,165.8,6.7C254,6.8,325.4,78.5,325.3,167
		C325.3,255.3,253.6,326.7,165.1,326.7z M187.7,184.3c-46.3,16.3-80.7,44.9-103.8,86.7c0.5,1,0.6,1.3,0.8,1.5c0.5,0.5,1,0.9,1.5,1.3
		c37.8,26.9,78.7,33,122.8,18.9c3.6-1.1,3.6-3.2,3.1-6c-4-20.2-7.4-40.6-12-60.6C196.9,212.3,192.1,199,187.7,184.3z M65.1,254.5
		c26-45.9,65.1-74.4,113.6-92.1c-2.9-6.4-5.7-12.9-8-18c-23.7,4.5-46.2,10-69.1,12.8c-22.8,2.9-46,3.1-69.4,4.5
		C31,196.4,42.1,227.2,65.1,254.5z M157.4,120.3c0.1-0.9,0.1-1.1,0.1-1.3C143.7,93.8,127.1,70.6,107,50c-0.9-0.9-3.4-1.2-4.6-0.5
		c-4.7,2.5-9.3,5.2-13.6,8.3c-26.5,18.9-43.9,44-52.6,76.1C77.7,136.2,117.9,131.8,157.4,120.3z M215.7,182.1
		c10.6,31.2,17.6,63.2,21.7,96.1c29.5-14.5,62.3-67.9,59.6-96.3C284.2,179.2,226,179.3,215.7,182.1z M250.3,64.3
		c-35.7-31.1-87-36.4-117.1-26.1c20.8,21.5,37.3,45.9,51.8,72.1C210.2,99.3,232.7,85.6,250.3,64.3z M196.5,133.1
		c3.1,7.4,6.2,14.6,9,21.8c1.1,3,2.6,3.8,5.8,3.7c27.4-0.5,54.9-0.7,82.3-1.1c1.4,0,2.9,0,4.3,0c-0.1-24.6-15.7-62.5-31.3-76.7
		C248.9,105.6,223.8,120.8,196.5,133.1z"/>
</g>
</svg>
