<?xml version="1.0" encoding="utf-8"?>
<!-- Generator: Adobe Illustrator 19.0.0, SVG Export Plug-In . SVG Version: 6.00 Build 0)  -->
<svg version="1.1" id="Layer_1" xmlns="http://www.w3.org/2000/svg" xmlns:xlink="http://www.w3.org/1999/xlink" x="0px" y="0px"
	 viewBox="-839 144.3 319.5 272.7" style="enable-background:new -839 144.3 319.5 272.7;" xml:space="preserve">
<style type="text/css">
	.st0{fill:#0066FF;}
</style>
<g>
	<path class="st0" d="M-684.4,229.2c0-8.7-1.1-16.9,0.2-24.8c4.1-25.5,18.7-43.3,43-51.8c24.3-8.6,46.7-3.5,66,13.6
		c2.9,2.6,5.4,3.5,8.8,2.2c10.6-4,21.1-8,31.6-12.1c1.3-0.5,2.6-1.2,4.1-2c-2.7,11.1-7.8,17.8-25.6,35.9c11.2-3,22.4-6.1,33.7-9.2
		c-0.5,0.8-0.9,2-1.7,2.8c-8.5,8.9-16.9,17.9-25.7,26.4c-2.6,2.5-3.9,4.5-4,8.3c-2,78.5-35.4,138.9-107.2,172.9
		c-58.9,27.9-118.4,23.2-175.3-9.3c-0.9-0.5-1.7-1.1-2.5-2.1c16.8,0.7,33.4-0.1,49.6-4.8c16.1-4.7,30.9-11.9,45-22.8
		c-30.1-2.9-50-17.8-61-45.9c9.7,0,18.7,0,27.7,0c-34.5-15.5-51.8-37.5-50.2-65c9,2.6,18.2,5.1,27.3,7.7c0.3-0.5,0.6-1,0.9-1.5
		c-13.6-10.1-22.8-23-26.4-39.4c-3.7-16.4-1.4-32,7.2-47.6c17,20.4,36.8,36.6,60,48.4C-735.6,221-710.9,227.8-684.4,229.2z"/>
</g>
</svg>
